<?xml version="1.0" encoding="UTF-8"?> <svg xmlns="http://www.w3.org/2000/svg" xmlns:xlink="http://www.w3.org/1999/xlink" id="Layer_1" data-name="Layer 1" viewBox="0 0 600 195"><defs><linearGradient id="linear-gradient" x1="59.95" y1="147.47" x2="136.43" y2="45.98" gradientUnits="userSpaceOnUse"><stop offset="0" stop-color="#580097"></stop><stop offset="0.09" stop-color="#620ca0"></stop><stop offset="0.51" stop-color="#8d3cc6"></stop><stop offset="0.82" stop-color="#a75bde"></stop><stop offset="1" stop-color="#b166e7"></stop></linearGradient><linearGradient id="linear-gradient-2" x1="56.74" y1="145.81" x2="132.34" y2="45.49" xlink:href="#linear-gradient"></linearGradient><linearGradient id="linear-gradient-3" x1="58.56" y1="147.36" x2="134.76" y2="46.24" xlink:href="#linear-gradient"></linearGradient></defs><path d="M191.44,74.13h7.5v18.6h23.48V74.13h7.5v46.69h-7.5V99.45H198.94v21.37h-7.5Z"></path><path d="M273.35,86.08l-16.91,38.7c-2.9,6.58-6.79,9.55-12.73,9.55a22.94,22.94,0,0,1-5.73-.71v-6.3c2.19.22,3.54.29,4.1.29,3.47,0,5.87-1.21,7.57-5.1l1.42-3.25L237.2,86.08h8l10,25.26,10.26-25.26Z"></path><path d="M283.18,105.89c.92,5.66,5.38,9.12,11.32,9.12a14.94,14.94,0,0,0,10.11-4.1l3.54,5.09a19.46,19.46,0,0,1-13.86,5.59c-10.61,0-18.68-7.85-18.68-18.11a17.92,17.92,0,0,1,18-18.18,15.63,15.63,0,0,1,16.06,15.92,22.37,22.37,0,0,1-.57,4.67Zm19-5.8c-.07-5.31-4-8.49-8.91-8.49s-8.85,3.32-10,8.49Z"></path><path d="M337.43,92.66h-2.26c-5.87,0-10.19,3.47-10.19,9.62v18.54h-7.42V86.08h6.93v4.53a12.83,12.83,0,0,1,10.11-4.88,11.47,11.47,0,0,1,2.83.35Z"></path><path d="M361.91,74.13h17c9.4,0,15.84,5.87,15.84,14.29s-6.44,14.36-15.84,14.36h-9.55v18h-7.5Zm16.9,22c5.31,0,8.28-3,8.28-7.64s-3-7.71-8.28-7.71h-9.4V96.13Z"></path><path d="M416.94,85.3c10.12-.21,18.68,8.28,18.46,18.11.22,9.84-8.34,18.4-18.46,18.18a18.2,18.2,0,0,1-18.32-18.18C398.41,93.44,407,85.16,416.94,85.3Zm.07,6.79c-6.15,0-10.82,5-10.82,11.39s4.67,11.25,10.75,11.25,10.82-5,10.82-11.25S423,92.09,417,92.09Z"></path><path d="M495.25,86.08l-15.42,35.51h-2.55l-10.9-23.13-10.89,23.13h-2.55L437.52,86.08h7.93l9.12,22.71L465.11,85.3h2.55l10.68,23.21,9-22.43Z"></path><path d="M504.86,105.89c.92,5.66,5.38,9.12,11.32,9.12a15,15,0,0,0,10.12-4.1l3.53,5.09A19.46,19.46,0,0,1,516,121.59c-10.61,0-18.68-7.85-18.68-18.11a17.92,17.92,0,0,1,18-18.18,15.63,15.63,0,0,1,16.06,15.92,21.72,21.72,0,0,1-.57,4.67Zm19-5.8c-.07-5.31-4-8.49-8.91-8.49s-8.84,3.32-10,8.49Z"></path><path d="M559.54,92.66h-2.26c-5.88,0-10.19,3.47-10.19,9.62v18.54h-7.43V86.08h6.93v4.53a12.86,12.86,0,0,1,10.12-4.88,11.59,11.59,0,0,1,2.83.35Z"></path><path d="M149.38,131.59c-11.66,12-40.83,8.14-67.91-9.42S39,79.49,45.24,64a.22.22,0,0,0-.32-.26A62.26,62.26,0,0,0,35,97.36V98a62.42,62.42,0,0,0,28.06,51.71l.39.26.54.35.41.25.08,0A62.12,62.12,0,0,0,97.32,160h.46a62.5,62.5,0,0,0,51.69-27.77l.25-.37A.22.22,0,0,0,149.38,131.59Z" style="fill:url(#linear-gradient)"></path><path d="M103,36.14a6.65,6.65,0,0,0-4.51,2.69c-1.6,2.46-.94,6.1,1.45,10.19,3.23,5.52,9.61,11.85,17.89,17.23s16.67,8.63,23,9.34c4.71.52,8.3-.36,9.9-2.82a6.68,6.68,0,0,0,.63-5.21,19.83,19.83,0,0,0-3-6.42A62.63,62.63,0,0,0,135,47.47l-.48-.36-.21-.15c-.89-.65-1.8-1.28-2.74-1.89a63,63,0,0,0-10.76-5.6h0c-.62-.25-1.25-.49-1.88-.72l-.4-.14-.4-.15a62.94,62.94,0,0,0-8-2.2A19.75,19.75,0,0,0,103,36.14Z" style="fill:url(#linear-gradient-2)"></path><path d="M55.65,51.84a14.27,14.27,0,0,0-1.32,2.58c-5.46,13.91,9.76,37.42,35.84,54.36s53.74,21.27,64.23,10.63a14.19,14.19,0,0,0,1.82-2.26,14.61,14.61,0,0,0,1.81-4l0-.12c0-.06,0-.12.05-.19s.09-.38.14-.57a63.84,63.84,0,0,0,1.36-7.71,1.79,1.79,0,0,0,0-.23c0-.21.05-.42.07-.62s0-.26,0-.39,0-.31,0-.46l0-.47,0-.3c0-.65.08-1.31.11-2a2.35,2.35,0,0,1,0-.26c0-.19,0-.37,0-.56v-.34c0-.17,0-.34,0-.51s0-.35,0-.52v-.33a63.12,63.12,0,0,0-2.15-16.31.17.17,0,0,0-.34.06,9,9,0,0,1-1.3,5.68,8.72,8.72,0,0,1-3.75,3.13,19.69,19.69,0,0,1-9.34,1.32c-9.09-.57-21.33-5.06-33.35-12.87S88.68,61.43,84.46,53.35a19.78,19.78,0,0,1-2.6-9.07,8.7,8.7,0,0,1,1.34-4.69,9.06,9.06,0,0,1,4.66-3.5.18.18,0,0,0-.09-.34h0A63.35,63.35,0,0,0,72.1,40.38l-.25.11-.3.14A62.7,62.7,0,0,0,58.07,49,14.61,14.61,0,0,0,55.65,51.84Z" style="fill:url(#linear-gradient-3)"></path></svg> 